<svg xmlns="http://www.w3.org/2000/svg" xmlns:xlink="http://www.w3.org/1999/xlink" width="500" zoomAndPan="magnify" viewBox="0 0 375 374.999991" height="500" preserveAspectRatio="xMidYMid meet" version="1.0"><defs><g/><clipPath id="a3f637f0ab"><rect x="0" width="137" y="0" height="343"/></clipPath><clipPath id="4526c1563f"><rect x="0" width="159" y="0" height="343"/></clipPath><clipPath id="a4c3468d64"><path d="M 0.519531 1 L 305 1 L 305 29 L 0.519531 29 Z M 0.519531 1 " clip-rule="nonzero"/></clipPath><clipPath id="2cee4f6865"><rect x="0" width="306" y="0" height="30"/></clipPath></defs><g transform="matrix(1, 0, 0, 1, 181, 32)"><g clip-path="url(#a3f637f0ab)"><g fill="#ffffff" fill-opacity="1"><g transform="translate(0.923956, 263.21789)"><g><path d="M 32.265625 -146.515625 C 27.066406 -146.515625 22.941406 -145.210938 19.890625 -142.609375 C 16.847656 -140.015625 14.25 -135.941406 12.09375 -130.390625 L 9.40625 -130.390625 L 16.9375 -160.765625 L 124.46875 -160.765625 L 95.4375 -83.34375 C 90.0625 -68.820312 83.472656 -50.046875 75.671875 -27.015625 C 67.878906 -3.984375 62.460938 13.984375 59.421875 26.890625 C 59.421875 26.890625 53.144531 26.890625 40.59375 26.890625 C 60.84375 -24.015625 75.453125 -61.117188 84.421875 -84.421875 L 108.078125 -146.515625 Z M 32.265625 -146.515625 "/></g></g></g></g></g><g transform="matrix(1, 0, 0, 1, 75, 0)"><g clip-path="url(#4526c1563f)"><g fill="#ffffff" fill-opacity="1"><g transform="translate(1.303358, 242.310037)"><g><path d="M 111.84375 -40.0625 L 111.84375 9.953125 C 111.84375 13.890625 112.914062 16.84375 115.0625 18.8125 C 118.644531 22.40625 122.5 24.203125 126.625 24.203125 L 129.578125 24.203125 L 129.578125 26.890625 L 76.359375 26.890625 L 76.625 24.203125 L 79.3125 24.203125 C 83.4375 24.203125 86.929688 22.851562 89.796875 20.15625 C 92.660156 17.46875 94.179688 14.15625 94.359375 10.21875 L 94.359375 -40.0625 L 10.75 -40.0625 L 10.75 -42.75 L 109.15625 -165.0625 L 111.84375 -165.0625 L 111.84375 -54.84375 L 123.40625 -54.84375 C 128.0625 -54.84375 131.238281 -55.203125 132.9375 -55.921875 C 134.644531 -56.640625 136.394531 -58.070312 138.1875 -60.21875 L 140.875 -60.21875 L 135.234375 -40.0625 Z M 94.359375 -54.84375 L 94.359375 -133.34375 L 30.921875 -54.84375 Z M 94.359375 -54.84375 "/></g></g></g></g></g><g transform="matrix(1, 0, 0, 1, 47, 145)"><g clip-path="url(#2cee4f6865)"><g clip-path="url(#a4c3468d64)"><path fill="#000000" d="M 7.46875 1.84375 L 297.574219 1.84375 C 299.371094 1.84375 301.09375 2.558594 302.363281 3.828125 C 303.632812 5.097656 304.347656 6.824219 304.347656 8.621094 L 304.347656 22.167969 C 304.347656 23.964844 303.632812 25.691406 302.363281 26.960938 C 301.09375 28.230469 299.371094 28.945312 297.574219 28.945312 L 7.46875 28.945312 C 5.671875 28.945312 3.949219 28.230469 2.679688 26.960938 C 1.40625 25.691406 0.695312 23.964844 0.695312 22.167969 L 0.695312 8.621094 C 0.695312 6.824219 1.40625 5.097656 2.679688 3.828125 C 3.949219 2.558594 5.671875 1.84375 7.46875 1.84375 Z M 7.46875 1.84375 " fill-opacity="1" fill-rule="nonzero"/></g><g fill="#ffffff" fill-opacity="1"><g transform="translate(13.929844, 20.473748)"><g><path d="M 8.359375 -10.921875 L 2.671875 -10.921875 L 2.671875 -6.671875 L 8.203125 -6.671875 L 8.203125 -5.5625 L 2.671875 -5.5625 L 2.671875 -1.125 L 8.59375 -1.125 L 8.5 0 L 1.390625 0 L 1.390625 -12.03125 L 8.359375 -12.03125 Z M 8.359375 -10.921875 "/></g></g></g><g fill="#ffffff" fill-opacity="1"><g transform="translate(36.018728, 20.473748)"><g><path d="M 0.203125 0 L 5.203125 -12.03125 L 6.34375 -12.03125 L 11.140625 0 L 9.8125 0 L 8.5625 -3.21875 L 2.84375 -3.21875 L 1.546875 0 Z M 3.28125 -4.328125 L 8.140625 -4.328125 L 5.765625 -10.421875 Z M 3.28125 -4.328125 "/></g></g></g><g fill="#ffffff" fill-opacity="1"><g transform="translate(60.327262, 20.473748)"><g><path d="M 7.09375 -5.828125 L 11.28125 -5.828125 L 11.28125 0 L 10.28125 0 L 10.109375 -1.609375 C 9.328125 -0.441406 8.070312 0.140625 6.34375 0.140625 C 5.257812 0.140625 4.316406 -0.09375 3.515625 -0.5625 C 2.710938 -1.039062 2.085938 -1.722656 1.640625 -2.609375 C 1.203125 -3.492188 0.984375 -4.554688 0.984375 -5.796875 C 0.984375 -7.066406 1.226562 -8.179688 1.71875 -9.140625 C 2.21875 -10.097656 2.910156 -10.847656 3.796875 -11.390625 C 4.691406 -11.929688 5.742188 -12.203125 6.953125 -12.203125 C 8.890625 -12.203125 10.296875 -11.445312 11.171875 -9.9375 L 10.15625 -9.171875 C 9.488281 -10.378906 8.390625 -10.984375 6.859375 -10.984375 C 5.960938 -10.984375 5.171875 -10.765625 4.484375 -10.328125 C 3.804688 -9.898438 3.28125 -9.296875 2.90625 -8.515625 C 2.53125 -7.734375 2.34375 -6.828125 2.34375 -5.796875 C 2.34375 -4.285156 2.703125 -3.117188 3.421875 -2.296875 C 4.148438 -1.472656 5.15625 -1.0625 6.4375 -1.0625 C 7.539062 -1.0625 8.414062 -1.34375 9.0625 -1.90625 C 9.707031 -2.46875 10.03125 -3.226562 10.03125 -4.1875 L 10.03125 -4.765625 L 7.09375 -4.765625 Z M 7.09375 -5.828125 "/></g></g></g><g fill="#ffffff" fill-opacity="1"><g transform="translate(85.550763, 20.473748)"><g><path d="M 1.390625 0 L 1.390625 -12.03125 L 2.703125 -12.03125 L 2.703125 -1.140625 L 8.328125 -1.140625 L 8.203125 0 Z M 1.390625 0 "/></g></g></g><g fill="#ffffff" fill-opacity="1"><g transform="translate(106.656907, 20.473748)"><g><path d="M 8.359375 -10.921875 L 2.671875 -10.921875 L 2.671875 -6.671875 L 8.203125 -6.671875 L 8.203125 -5.5625 L 2.671875 -5.5625 L 2.671875 -1.125 L 8.59375 -1.125 L 8.5 0 L 1.390625 0 L 1.390625 -12.03125 L 8.359375 -12.03125 Z M 8.359375 -10.921875 "/></g></g></g><g fill="#ffffff" fill-opacity="1"><g transform="translate(128.745791, 20.473748)"><g/></g></g><g fill="#ffffff" fill-opacity="1"><g transform="translate(145.514318, 20.473748)"><g><path d="M 8.015625 -10.921875 L 2.671875 -10.921875 L 2.671875 -6.5 L 7.859375 -6.5 L 7.859375 -5.375 L 2.671875 -5.375 L 2.671875 0 L 1.390625 0 L 1.390625 -12.03125 L 8.015625 -12.03125 Z M 8.015625 -10.921875 "/></g></g></g><g fill="#ffffff" fill-opacity="1"><g transform="translate(166.620462, 20.473748)"><g><path d="M 1.390625 0 L 1.390625 -12.03125 L 2.703125 -12.03125 L 2.703125 0 Z M 1.390625 0 "/></g></g></g><g fill="#ffffff" fill-opacity="1"><g transform="translate(183.609268, 20.473748)"><g><path d="M 9.515625 -12.03125 L 10.765625 -12.03125 L 10.765625 0 L 9.640625 0 L 2.640625 -9.828125 L 2.640625 0 L 1.390625 0 L 1.390625 -12.03125 L 2.515625 -12.03125 L 9.515625 -2.203125 Z M 9.515625 -12.03125 "/></g></g></g><g fill="#ffffff" fill-opacity="1"><g transform="translate(208.663331, 20.473748)"><g><path d="M 0.203125 0 L 5.203125 -12.03125 L 6.34375 -12.03125 L 11.140625 0 L 9.8125 0 L 8.5625 -3.21875 L 2.84375 -3.21875 L 1.546875 0 Z M 3.28125 -4.328125 L 8.140625 -4.328125 L 5.765625 -10.421875 Z M 3.28125 -4.328125 "/></g></g></g><g fill="#ffffff" fill-opacity="1"><g transform="translate(232.971865, 20.473748)"><g><path d="M 9.515625 -12.03125 L 10.765625 -12.03125 L 10.765625 0 L 9.640625 0 L 2.640625 -9.828125 L 2.640625 0 L 1.390625 0 L 1.390625 -12.03125 L 2.515625 -12.03125 L 9.515625 -2.203125 Z M 9.515625 -12.03125 "/></g></g></g><g fill="#ffffff" fill-opacity="1"><g transform="translate(258.025928, 20.473748)"><g><path d="M 10.953125 -2.3125 C 10.515625 -1.519531 9.90625 -0.910156 9.125 -0.484375 C 8.351562 -0.0664062 7.46875 0.140625 6.46875 0.140625 C 5.332031 0.140625 4.351562 -0.09375 3.53125 -0.5625 C 2.71875 -1.039062 2.085938 -1.722656 1.640625 -2.609375 C 1.203125 -3.503906 0.984375 -4.566406 0.984375 -5.796875 C 0.984375 -7.066406 1.222656 -8.179688 1.703125 -9.140625 C 2.191406 -10.097656 2.867188 -10.847656 3.734375 -11.390625 C 4.609375 -11.929688 5.617188 -12.203125 6.765625 -12.203125 C 7.703125 -12.203125 8.53125 -12.007812 9.25 -11.625 C 9.96875 -11.238281 10.539062 -10.675781 10.96875 -9.9375 L 9.953125 -9.171875 C 9.273438 -10.390625 8.203125 -11 6.734375 -11 C 5.859375 -11 5.085938 -10.78125 4.421875 -10.34375 C 3.765625 -9.90625 3.25 -9.296875 2.875 -8.515625 C 2.507812 -7.734375 2.328125 -6.828125 2.328125 -5.796875 C 2.328125 -4.304688 2.691406 -3.144531 3.421875 -2.3125 C 4.148438 -1.476562 5.164062 -1.0625 6.46875 -1.0625 C 8.082031 -1.0625 9.242188 -1.726562 9.953125 -3.0625 Z M 10.953125 -2.3125 "/></g></g></g><g fill="#ffffff" fill-opacity="1"><g transform="translate(281.910857, 20.473748)"><g><path d="M 8.359375 -10.921875 L 2.671875 -10.921875 L 2.671875 -6.671875 L 8.203125 -6.671875 L 8.203125 -5.5625 L 2.671875 -5.5625 L 2.671875 -1.125 L 8.59375 -1.125 L 8.5 0 L 1.390625 0 L 1.390625 -12.03125 L 8.359375 -12.03125 Z M 8.359375 -10.921875 "/></g></g></g></g></g></svg>