<svg xmlns="http://www.w3.org/2000/svg" xmlns:xlink="http://www.w3.org/1999/xlink" width="500" zoomAndPan="magnify" viewBox="0 0 375 374.999991" height="500" preserveAspectRatio="xMidYMid meet" version="1.0"><defs><g/></defs><g fill="#000000" fill-opacity="1"><g transform="translate(169.757029, 267.133319)"><g><path d="M 19.0625 -86.546875 C 15.988281 -86.546875 13.550781 -85.773438 11.75 -84.234375 C 9.945312 -82.703125 8.410156 -80.296875 7.140625 -77.015625 L 5.5625 -77.015625 L 10 -94.953125 L 73.515625 -94.953125 L 56.375 -49.234375 C 53.195312 -40.648438 49.304688 -29.554688 44.703125 -15.953125 C 40.097656 -2.347656 36.894531 8.257812 35.09375 15.875 C 35.09375 15.875 31.390625 15.875 23.984375 15.875 C 35.941406 -14.1875 44.566406 -36.097656 49.859375 -49.859375 L 63.84375 -86.546875 Z M 19.0625 -86.546875 "/></g></g></g><g fill="#000000" fill-opacity="1"><g transform="translate(107.370497, 235.88332)"><g><path d="M 66.0625 -23.65625 L 66.0625 5.875 C 66.0625 8.207031 66.695312 9.953125 67.96875 11.109375 C 70.082031 13.234375 72.359375 14.296875 74.796875 14.296875 L 76.546875 14.296875 L 76.546875 15.875 L 45.09375 15.875 L 45.25 14.296875 L 46.84375 14.296875 C 49.28125 14.296875 51.34375 13.5 53.03125 11.90625 C 54.726562 10.320312 55.628906 8.363281 55.734375 6.03125 L 55.734375 -23.65625 L 6.359375 -23.65625 L 6.359375 -25.25 L 64.46875 -97.5 L 66.0625 -97.5 L 66.0625 -32.390625 L 72.890625 -32.390625 C 75.640625 -32.390625 77.515625 -32.601562 78.515625 -33.03125 C 79.523438 -33.457031 80.5625 -34.304688 81.625 -35.578125 L 83.203125 -35.578125 L 79.875 -23.65625 Z M 55.734375 -32.390625 L 55.734375 -78.765625 L 18.265625 -32.390625 Z M 55.734375 -32.390625 "/></g></g></g><path fill="#e1e1e1" d="M 152.992188 185.628906 L 221.988281 185.628906 C 223.050781 185.628906 224.070312 186.050781 224.820312 186.800781 C 225.570312 187.550781 225.992188 188.570312 225.992188 189.632812 L 225.992188 197.636719 C 225.992188 198.695312 225.570312 199.714844 224.820312 200.464844 C 224.070312 201.214844 223.050781 201.636719 221.988281 201.636719 L 152.992188 201.636719 C 151.929688 201.636719 150.914062 201.214844 150.160156 200.464844 C 149.410156 199.714844 148.988281 198.695312 148.988281 197.636719 L 148.988281 189.632812 C 148.988281 188.570312 149.410156 187.550781 150.160156 186.800781 C 150.914062 186.050781 151.929688 185.628906 152.992188 185.628906 Z M 152.992188 185.628906 " fill-opacity="0.26" fill-rule="nonzero"/><g fill="#000000" fill-opacity="1"><g transform="translate(156.80749, 196.633141)"><g><path d="M 5.3125 -5.984375 L 2 -5.984375 L 2 -4.15625 L 5.140625 -4.15625 L 5.140625 -3.03125 L 2 -3.03125 L 2 -1.125 L 5.421875 -1.125 L 5.34375 0 L 0.734375 0 L 0.734375 -7.109375 L 5.3125 -7.109375 Z M 5.3125 -5.984375 "/></g></g></g><g fill="#000000" fill-opacity="1"><g transform="translate(170.084467, 196.633141)"><g><path d="M -0.09375 0 L 2.9375 -7.109375 L 4.03125 -7.109375 L 6.953125 0 L 5.625 0 L 4.984375 -1.625 L 1.890625 -1.625 L 1.21875 0 Z M 2.328125 -2.71875 L 4.5625 -2.71875 L 3.46875 -5.515625 Z M 2.328125 -2.71875 "/></g></g></g><g fill="#000000" fill-opacity="1"><g transform="translate(184.592405, 196.633141)"><g><path d="M 4.203125 -3.703125 L 7.015625 -3.703125 L 7.015625 0 L 5.984375 0 L 5.875 -0.765625 C 5.644531 -0.453125 5.347656 -0.226562 4.984375 -0.09375 C 4.628906 0.03125 4.234375 0.09375 3.796875 0.09375 C 3.117188 0.09375 2.523438 -0.046875 2.015625 -0.328125 C 1.515625 -0.609375 1.128906 -1.007812 0.859375 -1.53125 C 0.585938 -2.0625 0.453125 -2.691406 0.453125 -3.421875 C 0.453125 -4.171875 0.601562 -4.828125 0.90625 -5.390625 C 1.21875 -5.960938 1.660156 -6.410156 2.234375 -6.734375 C 2.804688 -7.054688 3.476562 -7.21875 4.25 -7.21875 C 4.875 -7.21875 5.410156 -7.097656 5.859375 -6.859375 C 6.304688 -6.628906 6.675781 -6.28125 6.96875 -5.8125 L 5.96875 -5.078125 C 5.789062 -5.398438 5.546875 -5.632812 5.234375 -5.78125 C 4.929688 -5.9375 4.597656 -6.015625 4.234375 -6.015625 C 3.734375 -6.015625 3.300781 -5.90625 2.9375 -5.6875 C 2.570312 -5.476562 2.289062 -5.175781 2.09375 -4.78125 C 1.894531 -4.394531 1.796875 -3.945312 1.796875 -3.4375 C 1.796875 -2.6875 1.984375 -2.101562 2.359375 -1.6875 C 2.742188 -1.28125 3.265625 -1.078125 3.921875 -1.078125 C 4.234375 -1.078125 4.53125 -1.132812 4.8125 -1.25 C 5.09375 -1.363281 5.320312 -1.53125 5.5 -1.75 C 5.675781 -1.976562 5.765625 -2.253906 5.765625 -2.578125 L 5.765625 -2.640625 L 4.203125 -2.640625 Z M 4.203125 -3.703125 "/></g></g></g><g fill="#000000" fill-opacity="1"><g transform="translate(199.740845, 196.633141)"><g><path d="M 0.734375 0 L 0.734375 -7.109375 L 2.03125 -7.109375 L 2.03125 -1.140625 L 5.203125 -1.140625 L 5.109375 0 Z M 0.734375 0 "/></g></g></g><g fill="#000000" fill-opacity="1"><g transform="translate(212.507416, 196.633141)"><g><path d="M 5.3125 -5.984375 L 2 -5.984375 L 2 -4.15625 L 5.140625 -4.15625 L 5.140625 -3.03125 L 2 -3.03125 L 2 -1.125 L 5.421875 -1.125 L 5.34375 0 L 0.734375 0 L 0.734375 -7.109375 L 5.3125 -7.109375 Z M 5.3125 -5.984375 "/></g></g></g></svg>